<svg width="45" height="24" viewBox="0 0 45 24" fill="none" xmlns="http://www.w3.org/2000/svg">
<g opacity="0.8" filter="url(#filter0_d_609_346)">
<path d="M25.1814 14.2795C27.274 16.145 29.6704 16.8773 32.2579 17.1301C33.3693 17.2347 34.472 17.1388 35.5226 16.8424C37.9798 16.1625 40.0637 14.8113 41.7655 12.9196C42.7814 11.7863 43.2937 10.4612 42.8248 8.90082C42.7553 8.68288 42.6859 8.45622 42.573 8.26444C42.2865 7.76754 41.7308 7.63678 41.2359 7.97676C41.0101 8.13367 40.8451 8.38649 40.6367 8.60442C40.6367 9.20593 41.3748 9.50232 41.1664 10.1823C40.9754 10.8187 40.6802 11.3679 40.22 11.8212C38.5355 13.4862 36.6166 14.7851 34.2462 15.1512C31.8758 15.5174 29.653 14.9246 27.5865 13.739C27.491 13.6867 27.4303 13.5734 27.3608 13.4775C27.3347 13.4339 27.3261 13.3816 27.2913 13.2683C27.6734 12.9544 28.0728 12.6232 28.4635 12.2832C29.4273 11.4376 30.2695 10.4787 30.8252 9.30182C31.8672 7.0963 31.3809 5.07384 29.4533 3.57443C28.5677 2.88575 27.5865 2.4063 26.5012 2.14477C25.0599 1.78736 23.7227 2.10118 22.5592 2.98165C21.3002 3.93185 20.7793 5.23076 21.0745 6.81734C21.335 8.20342 21.8733 9.48489 22.594 10.6879C22.9239 11.2371 23.2452 11.7776 23.6359 12.4227C22.0556 13.2421 20.3625 13.216 18.7388 13.3903C16.7765 13.6083 13.8678 12.9544 11.9489 11.9955C12.3222 11.5161 12.93 11.4289 13.3381 11.0889C13.7289 10.7576 14.1196 10.4089 14.4322 10.0079C14.6666 9.70282 14.5363 9.33668 14.2672 9.06644C14.0067 8.7962 13.6854 8.67416 13.3294 8.86595C12.9214 9.08388 12.548 9.36284 12.1225 9.55463C10.5944 10.2607 9.04884 10.9058 7.34702 11.0715C7.17337 11.0889 6.99973 11.1063 6.83475 11.1499C6.40929 11.2632 6.10538 11.5248 6.01856 11.9607C5.93173 12.4052 6.15749 12.7539 6.53085 12.9893C7.2602 13.4601 8.02428 13.8785 8.73627 14.3754C9.8303 15.1425 10.8635 15.9881 11.5755 17.1563C11.6624 17.3045 11.7752 17.4439 11.8968 17.566C12.2962 18.0019 12.739 18.1152 13.1211 17.8798C13.5118 17.6444 13.7028 17.1824 13.5465 16.6594C13.4336 16.2758 13.2253 15.9184 13.0342 15.561C12.8866 15.2733 12.713 14.9943 12.4177 14.4887C14.71 15.0205 16.7678 15.622 18.9212 15.4302C21.0311 15.2471 23.0802 14.8984 25.1814 14.2795ZM25.6329 11.8212C24.5823 10.5136 23.7575 9.26695 23.2625 7.81985C23.0976 7.33167 22.9499 6.81734 22.8979 6.30301C22.7763 5.14358 23.2278 4.4549 24.2958 3.96672C25.0164 3.63545 25.7719 3.59187 26.4838 3.87954C27.1177 4.14107 27.7602 4.4549 28.2985 4.86462C29.627 5.87585 29.8788 7.07886 29.0887 8.53468C28.3333 9.94691 27.2132 11.0104 25.6329 11.8212Z" fill="white"/>
</g>
<defs>
<filter id="filter0_d_609_346" x="0" y="0" width="45" height="24" filterUnits="userSpaceOnUse" color-interpolation-filters="sRGB">
<feFlood flood-opacity="0" result="BackgroundImageFix"/>
<feColorMatrix in="SourceAlpha" type="matrix" values="0 0 0 0 0 0 0 0 0 0 0 0 0 0 0 0 0 0 127 0" result="hardAlpha"/>
<feOffset dx="-2" dy="2"/>
<feGaussianBlur stdDeviation="2"/>
<feComposite in2="hardAlpha" operator="out"/>
<feColorMatrix type="matrix" values="0 0 0 0 0 0 0 0 0 0 0 0 0 0 0 0 0 0 0.7 0"/>
<feBlend mode="normal" in2="BackgroundImageFix" result="effect1_dropShadow_609_346"/>
<feBlend mode="normal" in="SourceGraphic" in2="effect1_dropShadow_609_346" result="shape"/>
</filter>
</defs>
</svg>
