<svg width="37" height="23" viewBox="0 0 37 23" fill="none" xmlns="http://www.w3.org/2000/svg">
<g opacity="0.8" filter="url(#filter0_d_609_347)">
<path d="M30.9764 10.7642C30.9422 9.82529 30.4198 9.30338 29.7253 9.0154C29.1091 8.76011 28.4355 8.58281 27.7807 8.50782C26.4444 8.35602 25.102 8.37582 23.6813 8.62234C23.691 8.95069 23.7007 9.27903 23.7105 9.60737C23.7564 10.5253 23.8821 11.4487 23.8277 12.3488C23.7241 13.9419 22.9236 15.1403 21.5958 15.9612C20.2379 16.7991 18.7036 16.5572 17.6516 15.2917C15.9168 13.1984 16.0879 10.9164 17.5764 9.20267C18.0157 8.70035 18.5674 8.29312 19.1154 7.90476C19.567 7.57804 20.0801 7.35113 20.6681 7.01467C20.5124 6.72545 20.4148 6.3938 20.1958 6.19309C19.6971 5.72741 19.199 5.19898 18.605 4.92882C15.2673 3.4081 11.9623 3.37236 8.7873 5.31434C8.07699 5.74617 7.40529 6.25711 7.02442 7.07473C6.95837 7.21766 6.63385 7.30461 6.4456 7.28349C6.13035 7.24274 5.94132 6.92667 6.01662 6.65604C6.15854 6.17973 6.33656 5.67585 6.62336 5.28594C7.81839 3.67771 9.46755 2.72597 11.3698 2.29677C13.3045 1.85887 15.2589 1.91659 17.2049 2.39697C19.2535 2.90351 20.9492 3.94288 22.1651 5.75484C22.3237 5.98964 22.5066 6.21792 22.7533 6.55434C25.1796 6.45876 27.6903 6.12594 30.3103 6.98027C30.215 6.39756 30.1275 5.97377 30.0747 5.54963C30.025 5.16939 30.1918 4.8832 30.5057 4.69175C30.8056 4.513 31.3108 4.64599 31.5434 4.9951C31.7635 5.32969 31.9777 5.67481 32.1211 6.04783C32.7505 7.65023 33.3658 9.26533 33.9812 10.8804C34.0421 11.043 34.095 11.2077 34.1235 11.379C34.2344 12.0201 33.9207 12.5693 33.2958 12.6383C31.4616 12.8346 29.6221 12.9787 27.787 13.1394C27.6262 13.1557 27.4122 13.1683 27.2939 13.0837C27.078 12.9269 26.8427 12.7305 26.7617 12.4929C26.7052 12.347 26.8608 12.0191 27.0178 11.9234C27.3876 11.6811 27.793 11.4741 28.2148 11.3611C28.807 11.2024 29.4261 11.1439 30.0295 11.0269C30.3319 10.9548 30.6438 10.8534 30.9764 10.7642ZM21.6501 9.12188C20.309 9.37388 19.4409 9.86587 18.8349 10.6544C18.017 11.7233 18.0833 13.074 18.9872 14.1109C19.4528 14.648 20.031 14.7615 20.6456 14.4268C21.4961 13.9664 21.9664 13.2232 22.0805 12.2534C22.2113 11.2166 22.0633 10.2097 21.6501 9.12188Z" fill="white"/>
</g>
<defs>
<filter id="filter0_d_609_347" x="0" y="0" width="36.1455" height="22.4521" filterUnits="userSpaceOnUse" color-interpolation-filters="sRGB">
<feFlood flood-opacity="0" result="BackgroundImageFix"/>
<feColorMatrix in="SourceAlpha" type="matrix" values="0 0 0 0 0 0 0 0 0 0 0 0 0 0 0 0 0 0 127 0" result="hardAlpha"/>
<feOffset dx="-2" dy="2"/>
<feGaussianBlur stdDeviation="2"/>
<feComposite in2="hardAlpha" operator="out"/>
<feColorMatrix type="matrix" values="0 0 0 0 0 0 0 0 0 0 0 0 0 0 0 0 0 0 0.7 0"/>
<feBlend mode="normal" in2="BackgroundImageFix" result="effect1_dropShadow_609_347"/>
<feBlend mode="normal" in="SourceGraphic" in2="effect1_dropShadow_609_347" result="shape"/>
</filter>
</defs>
</svg>
