<svg width="47" height="41" viewBox="0 0 47 41" fill="none" xmlns="http://www.w3.org/2000/svg">
<g opacity="0.8" filter="url(#filter0_d_723_1075)">
<path d="M37.3132 18.0413C37.2171 15.8275 36.8659 13.5453 36.6118 11.4314C36.2854 8.28066 36.0261 7.69698 31.6696 8.23633C26.8869 8.81466 23.4612 9.02362 20.2251 10.1586C20.1674 10.1804 20.1158 10.2159 20.0748 10.2621C20.0338 10.3083 20.0047 10.3638 19.99 10.4238C19.9482 10.3811 19.8953 10.351 19.8372 10.3371C19.7791 10.3232 19.7183 10.3259 19.6617 10.3451C19.6051 10.3642 19.5551 10.399 19.5174 10.4453C19.4797 10.4916 19.4558 10.5476 19.4486 10.6069C18.9189 14.6661 19.498 18.7926 19.7716 22.7935C19.8359 23.6968 20.214 26.8177 21.0937 27.2503C21.9733 27.6829 22.9799 27.2744 23.6879 27.2452C25.9673 27.1191 28.2355 26.8387 30.477 26.4059C32.5543 26.0435 36.1495 26.2629 36.9431 25.2612C37.5983 24.4083 37.4742 24.0141 37.3132 18.0413ZM35.9767 24.499C35.7177 24.8125 31.4643 25.0075 30.2585 25.2205C28.0692 25.663 25.8556 25.9759 23.6293 26.1574C22.9639 26.2982 22.2835 26.3548 21.604 26.3258C20.7403 25.0988 20.0897 16.3801 20.0384 15.4693C19.9237 13.8989 19.9365 12.3217 20.0767 10.7533C20.4166 11.1179 21.2072 10.2905 25.3731 9.80941C32.919 9.08532 33.0069 9.04322 33.9932 9.07775C34.3498 9.07575 34.7044 9.13017 35.044 9.23898C35.3635 9.96856 35.525 10.7575 35.5178 11.554C35.7507 13.706 36.0509 15.9745 36.1307 18.0855C36.2449 23.9472 36.3408 24.0386 35.9767 24.499Z" fill="white"/>
<path d="M35.2371 19.0931C35.1865 17.9369 35.0525 16.7859 34.8362 15.6489C34.5015 13.7541 34.8001 11.7007 34.057 10.9218C33.6566 10.4972 33.1894 10.6893 32.8633 10.7223C28.3471 11 24.7078 11.108 21.6912 11.9954C21.6374 12.0098 21.5883 12.0381 21.5489 12.0775C21.5094 12.1168 21.4811 12.1659 21.4667 12.2197C21.4522 12.2735 21.4523 12.3302 21.4667 12.384C21.4812 12.4378 21.5095 12.4869 21.549 12.5262C21.6285 18.9257 21.3084 18.4461 21.7563 20.7761C22.1405 22.7717 22.0922 22.7478 33.3511 21.1916C33.9915 21.2164 34.6165 20.9917 35.0944 20.5647C35.4687 20.107 35.2462 19.4675 35.2371 19.0931ZM33.9618 18.2591C33.0668 17.516 32.3083 16.5907 31.4387 15.7122C32.0862 15.1167 32.7774 14.5705 33.5066 14.0783C33.5746 15.8251 33.7968 16.18 33.9618 18.2591ZM22.2747 12.5128C23.2871 12.2736 24.3153 12.1067 25.3514 12.0134C26.3937 11.9208 32.8389 11.7113 33.2917 11.6138C33.454 12.1026 33.5201 12.6182 33.4866 13.1321C32.4161 13.4956 31.4957 14.2029 30.8689 15.1438C29.528 13.9421 28.1185 13.1597 26.4899 13.9705C24.8614 14.7813 23.9656 15.9198 22.3923 17.7082C22.4114 13.6763 22.4316 15.0711 22.2747 12.5128ZM33.8523 19.8927C33.2013 20.0355 36.4633 19.4983 24.4044 21.2231C24.1423 21.2622 23.0632 21.4107 22.8816 21.2308C22.636 20.4087 22.4961 19.5588 22.4653 18.7014C23.559 17.5696 24.7479 16.5339 26.019 15.6057C27.5666 14.7294 28.0189 14.5115 29.7192 15.6782C31.4196 16.8449 32.3247 18.2034 34.0913 19.2456C34.0978 19.4662 33.9707 19.8588 33.8523 19.8927Z" fill="white"/>
<path d="M34.1614 22.6993C33.6659 22.588 33.1535 22.5733 32.6524 22.656C31.5634 22.7501 30.4981 23.0268 29.501 23.4745C29.4614 23.4883 29.4249 23.5098 29.3936 23.5377C29.3623 23.5656 29.3368 23.5994 29.3185 23.6372C29.3003 23.675 29.2896 23.716 29.2872 23.7579C29.2848 23.7998 29.2907 23.8417 29.3045 23.8813C29.3183 23.9209 29.3398 23.9575 29.3677 23.9888C29.3956 24.0201 29.4294 24.0456 29.4672 24.0638C29.505 24.0821 29.546 24.0927 29.5879 24.0951C29.6298 24.0975 29.6717 24.0917 29.7113 24.0779C30.5174 23.8927 31.3349 23.7609 32.1583 23.6833C32.7714 23.5457 33.3931 23.4491 34.019 23.3941C34.0677 23.4126 34.1198 23.4203 34.1717 23.4167C34.2237 23.4131 34.2742 23.3982 34.3198 23.3731C34.3654 23.3481 34.405 23.3134 34.4359 23.2715C34.4668 23.2295 34.4882 23.1814 34.4987 23.1304C34.5091 23.0794 34.5084 23.0268 34.4965 22.9761C34.4846 22.9254 34.4618 22.8779 34.4297 22.8369C34.3976 22.7959 34.357 22.7624 34.3107 22.7386C34.2644 22.7148 34.2135 22.7014 34.1614 22.6993Z" fill="white"/>
<path d="M29.1179 2.03584C17.651 1.76377 8.41148 12.4672 12.9224 23.9346C11.7505 22.7125 9.39767 21.2653 6.85655 18.8134C6.81469 18.7719 6.76506 18.7391 6.71051 18.7168C6.65596 18.6944 6.59754 18.6831 6.5386 18.6834C6.47967 18.6836 6.42136 18.6955 6.367 18.7183C6.31265 18.7411 6.26332 18.7744 6.22184 18.8162C6.13804 18.9008 6.09127 19.0151 6.0918 19.1342C6.09233 19.2532 7.09709 20.3241 7.18164 20.4079C8.11995 21.3717 8.41226 22.0431 9.71987 23.2201C11.7505 25.2507 11.9361 25.2469 12.4707 25.6611C13.2915 26.3108 14.3383 25.8073 15.0382 25.1738C16.8744 23.4554 15.7313 21.5141 18.4017 19.5388C18.456 19.5028 18.5025 19.4564 18.5386 19.4022C18.5746 19.348 18.5995 19.2871 18.6116 19.2231C18.6237 19.1591 18.6229 19.0934 18.6092 19.0297C18.5955 18.9661 18.5692 18.9058 18.5318 18.8525C18.4944 18.7992 18.4467 18.7539 18.3916 18.7194C18.3364 18.6848 18.2749 18.6616 18.2106 18.6512C18.1463 18.6408 18.0806 18.6434 18.0174 18.6588C17.9541 18.6743 17.8946 18.7022 17.8423 18.741C14.6442 20.8689 15.5809 22.4976 13.931 23.9542C13.832 24.1257 13.931 23.9542 13.8661 23.6706C12.7618 20.9593 12.5238 17.9725 13.1849 15.1205C13.8459 12.2685 15.3737 9.69102 17.5583 7.74203C23.5186 2.10914 34.6198 1.76565 39.6841 9.0155C50.793 24.3451 30.4146 38.0679 19.4399 31.1865C19.342 31.13 19.2256 31.1147 19.1164 31.1439C19.0071 31.1732 18.914 31.2447 18.8574 31.3426C18.8009 31.4406 18.7856 31.557 18.8148 31.6662C18.8441 31.7754 18.9156 31.8686 19.0135 31.9251C30.6967 39.62 53.1835 24.9866 41.071 8.07529C39.6859 6.20797 37.8842 4.68969 35.8091 3.64122C33.734 2.59275 31.4428 2.04304 29.1179 2.03584Z" fill="white"/>
</g>
<defs>
<filter id="filter0_d_723_1075" x="2.67029e-05" y="0.000171661" width="46.5806" height="40.1224" filterUnits="userSpaceOnUse" color-interpolation-filters="sRGB">
<feFlood flood-opacity="0" result="BackgroundImageFix"/>
<feColorMatrix in="SourceAlpha" type="matrix" values="0 0 0 0 0 0 0 0 0 0 0 0 0 0 0 0 0 0 127 0" result="hardAlpha"/>
<feOffset dx="-2.03059" dy="2.03059"/>
<feGaussianBlur stdDeviation="2.03059"/>
<feComposite in2="hardAlpha" operator="out"/>
<feColorMatrix type="matrix" values="0 0 0 0 0 0 0 0 0 0 0 0 0 0 0 0 0 0 0.7 0"/>
<feBlend mode="normal" in2="BackgroundImageFix" result="effect1_dropShadow_723_1075"/>
<feBlend mode="normal" in="SourceGraphic" in2="effect1_dropShadow_723_1075" result="shape"/>
</filter>
</defs>
</svg>
