<svg width="35" height="38" viewBox="0 0 35 38" fill="none" xmlns="http://www.w3.org/2000/svg">
<g filter="url(#filter0_d_784_1434)">
<path fill-rule="evenodd" clip-rule="evenodd" d="M29.0205 8.101C28.6589 8.24937 28.2798 8.35095 27.8924 8.40326C26.9064 8.55865 25.7457 8.60367 24.8785 8.7514C23.0848 9.0507 21.2436 9.39894 19.4184 9.85173C17.5932 10.3045 15.8087 10.819 14.0823 11.4146L8.97572 13.1576C9.01099 13.1113 9.03456 13.0572 9.04444 12.9998C9.05433 12.9424 9.05023 12.8835 9.0325 12.8281C9.16786 12.7918 9.01674 12.2278 9.02116 12.1541C9.04196 11.892 9.10358 11.6348 9.20381 11.3918C9.28867 11.1808 9.4333 10.9992 9.61994 10.8693C10.4336 10.3467 11.2824 9.88096 12.1602 9.47529C13.4898 8.87175 14.8605 8.36308 16.2619 7.95307C17.8504 7.40656 19.4749 6.97127 21.1238 6.65035C22.2086 6.42695 23.3137 6.31721 24.4213 6.32292C24.5236 6.33372 24.6223 6.36731 24.71 6.42123C24.7976 6.47515 24.8721 6.54802 24.9279 6.6345C25.1003 6.9031 25.2456 7.18818 25.3615 7.48553C25.4074 7.58001 25.487 7.65389 25.5846 7.69262C25.6823 7.73134 25.7909 7.73212 25.8891 7.69478C25.9378 7.67434 25.982 7.64437 26.019 7.60663C26.056 7.56888 26.0852 7.52413 26.1046 7.47499C26.1241 7.42585 26.1336 7.37331 26.1325 7.32046C26.1314 7.2676 26.1198 7.2155 26.0983 7.1672C25.9611 6.72887 25.7563 6.31466 25.4913 5.93949C25.3675 5.7816 25.2119 5.65139 25.0347 5.55728C24.8574 5.46317 24.6625 5.40724 24.4623 5.39309C23.263 5.30154 22.0574 5.34082 20.8666 5.51024C20.8666 5.51024 19.756 3.98224 19.7417 3.97398C19.2977 3.52698 18.7636 3.17964 18.175 2.95505C17.5271 2.75221 16.8303 2.76891 16.1928 3.00257C15.6163 3.2069 15.0747 3.49883 14.587 3.86808C14.0828 4.27058 13.6866 4.79223 13.4341 5.38601C13.273 6.13299 13.2097 6.89775 13.2458 7.66105C12.9299 7.74569 12.6157 7.9266 12.318 8.07892C11.1661 8.65207 10.0798 9.34851 9.07821 10.156C8.83441 10.3595 8.63848 10.6143 8.50437 10.9022C8.34232 11.3069 8.26105 11.7394 8.26517 12.1753C8.2669 12.4534 8.28481 12.7312 8.31882 13.0072C8.32911 13.0653 8.35087 13.1207 8.38284 13.1703C8.4148 13.2198 8.45632 13.2625 8.50497 13.2959L8.58998 13.2973C4.67231 14.6493 6.28021 14.9196 6.58176 14.8267C6.83152 14.7446 7.07587 14.6468 7.31336 14.534L14.4538 12.6207C15.9202 12.2278 17.3911 11.7611 18.8884 11.3479L21.8664 10.5499C22.9944 10.2476 23.9984 9.97863 25.0656 9.76522C25.9003 9.54155 27.0632 9.45966 28.0371 9.25915C28.5011 9.19215 28.9555 9.0704 29.3908 8.89644C29.4865 8.85301 29.5611 8.7734 29.5982 8.67507C29.6353 8.57675 29.6319 8.46772 29.5888 8.37188C29.5741 8.31358 29.5467 8.25925 29.5086 8.21274C29.4705 8.16624 29.4226 8.12872 29.3683 8.10285C29.314 8.07698 29.2547 8.0634 29.1946 8.06308C29.1345 8.06276 29.075 8.07571 29.0205 8.101ZM14.4285 5.89334C14.6222 5.59693 14.8684 5.33838 15.155 5.13044C15.6168 4.78051 16.1301 4.50431 16.6766 4.31166C17.0437 4.14405 17.4546 4.09745 17.85 4.17861C18.2963 4.2984 18.7179 4.49657 19.0949 4.76387C19.1725 4.82772 19.5778 5.3478 19.8754 5.69122C18.5211 5.95287 17.1836 6.2951 15.87 6.71608C15.3286 6.86117 14.7758 7.00927 14.2217 7.24238C14.3693 6.7555 14.3451 5.98823 14.4285 5.89334Z" fill="#D8D8D8"/>
<path fill-rule="evenodd" clip-rule="evenodd" d="M27.9188 10.3064C27.8368 10.2611 27.7405 10.2494 27.6501 10.2736C27.5596 10.2978 27.4821 10.3562 27.4337 10.4364C27.4046 10.5107 27.4 10.5924 27.4206 10.6696C27.4413 10.7467 27.4861 10.8152 27.5486 10.865L27.5637 10.9214L27.6604 11.2824C28.0402 13.1113 28.3059 14.9621 28.4562 16.824C28.6953 19.2505 28.8675 21.7433 28.8412 23.044C28.8314 23.639 28.8727 24.2445 28.8261 24.8373C28.8082 25.1803 28.7355 25.5182 28.6106 25.8381C28.2976 26.5149 27.7619 27.0639 27.0929 27.3933C26.0083 27.9911 24.827 28.3935 23.6031 28.5823C21.9559 28.8423 20.219 29.4891 18.5485 29.707C17.8936 29.7909 17.2289 29.7561 16.5864 29.604C16.1941 29.454 15.8547 29.1917 15.6106 28.8499C15.1201 28.2564 14.7056 27.6039 14.3768 26.9076C13.9568 26.0167 13.4394 24.8979 12.8948 23.6777C11.617 20.8041 10.2018 17.5079 9.5833 16.1019C9.53935 16.0047 9.46008 15.9278 9.36155 15.8869C9.26302 15.8459 9.15261 15.844 9.05269 15.8814C8.95628 15.9251 8.88059 16.0046 8.84156 16.103C8.80253 16.2014 8.80321 16.3111 8.84344 16.409C9.4229 17.8496 10.7366 21.173 11.9293 24.0452C12.4288 25.2775 12.9071 26.4309 13.2986 27.3053C13.6524 28.1077 14.1027 28.864 14.6395 29.5575C15.0258 30.1207 15.5718 30.5555 16.2072 30.8058C17.0098 31.0171 17.8454 31.0723 18.6688 30.9684C20.3913 30.8091 22.0741 30.1406 23.8032 29.8707C25.1991 29.6513 26.5435 29.1805 27.7712 28.481C28.6801 27.9781 29.3955 27.1866 29.8042 26.2316C29.9503 25.7841 30.033 25.3184 30.05 24.8479C30.0794 24.2355 30.0298 23.6443 30.0102 22.9846C29.8279 20.0252 29.4862 17.0777 28.9863 14.1551C28.8263 12.9952 28.5797 11.8489 28.2488 10.7258C28.1807 10.5575 28.0663 10.4121 27.9188 10.3064Z" fill="#D8D8D8"/>
<path fill-rule="evenodd" clip-rule="evenodd" d="M17.3456 22.1948C17.7574 23.1 18.1728 23.8834 18.4571 24.448C18.6388 24.8103 18.7708 25.0772 18.8296 25.2065C18.988 25.5268 19.2692 25.4031 19.4563 25.2441C19.4913 25.2294 19.5228 25.2075 19.5487 25.1797C19.5746 25.1519 19.5943 25.1189 19.6066 25.083C19.6066 25.083 19.5884 25.0153 19.5824 24.9927L19.3678 24.1919C19.2046 23.5827 18.9749 22.7254 18.5939 21.7999C18.4548 21.281 18.2082 20.7667 17.9842 20.2464C17.9116 19.9757 17.7714 19.7231 17.6455 19.4788C17.0814 18.2759 16.4798 17.2039 16.1081 16.4934C16.0902 16.4506 16.0641 16.4117 16.0313 16.3789C15.9984 16.3461 15.9594 16.3202 15.9165 16.3025C15.8736 16.2848 15.8276 16.2757 15.7812 16.2758C15.7348 16.2759 15.6888 16.2851 15.646 16.3029C15.6031 16.3207 15.5642 16.3468 15.5314 16.3797C15.4987 16.4126 15.4727 16.4516 15.455 16.4945C15.4373 16.5374 15.4282 16.5834 15.4283 16.6298C15.4284 16.6762 15.4376 16.7222 15.4554 16.765C15.661 17.5321 15.9814 18.7278 16.447 19.9692C16.5195 20.2399 16.589 20.4994 16.7405 20.7489C16.8923 21.1798 17.1163 21.7001 17.3456 22.1948Z" fill="#D8D8D8"/>
<path fill-rule="evenodd" clip-rule="evenodd" d="M24.4895 23.6788C24.5912 23.6515 24.6779 23.585 24.7306 23.4938C24.7832 23.4026 24.7975 23.2942 24.7703 23.1925C24.6423 22.4893 24.553 21.3889 24.3687 20.205C24.2784 19.5522 24.1678 18.8685 24.0211 18.2308C23.6807 16.6898 23.2594 15.3882 23.1415 14.9483C23.1203 14.8565 23.0642 14.7767 22.985 14.7257C22.9059 14.6746 22.81 14.6564 22.7177 14.6749C22.6724 14.6838 22.6293 14.7015 22.5909 14.727C22.5525 14.7526 22.5195 14.7855 22.4938 14.8238C22.4681 14.8621 22.4503 14.9052 22.4413 14.9504C22.4323 14.9957 22.4323 15.0423 22.4414 15.0875C22.4795 15.5005 22.5132 16.6641 22.6781 18.0466C22.7244 18.4452 22.8024 18.8717 22.8774 19.2868C22.9524 19.702 23.0981 20.1103 23.2069 20.5164C23.5091 21.6444 23.7963 22.716 24.0709 23.3799C24.0938 23.4713 24.1485 23.5515 24.2252 23.6063C24.3019 23.6611 24.3956 23.6868 24.4895 23.6788Z" fill="#D8D8D8"/>
</g>
<defs>
<filter id="filter0_d_784_1434" x="0" y="0.814367" width="32.0591" height="36.2051" filterUnits="userSpaceOnUse" color-interpolation-filters="sRGB">
<feFlood flood-opacity="0" result="BackgroundImageFix"/>
<feColorMatrix in="SourceAlpha" type="matrix" values="0 0 0 0 0 0 0 0 0 0 0 0 0 0 0 0 0 0 127 0" result="hardAlpha"/>
<feOffset dx="-2" dy="2"/>
<feGaussianBlur stdDeviation="2"/>
<feComposite in2="hardAlpha" operator="out"/>
<feColorMatrix type="matrix" values="0 0 0 0 0 0 0 0 0 0 0 0 0 0 0 0 0 0 0.7 0"/>
<feBlend mode="normal" in2="BackgroundImageFix" result="effect1_dropShadow_784_1434"/>
<feBlend mode="normal" in="SourceGraphic" in2="effect1_dropShadow_784_1434" result="shape"/>
</filter>
</defs>
</svg>
