<svg width="41" height="39" viewBox="0 0 41 39" fill="none" xmlns="http://www.w3.org/2000/svg">
<g opacity="0.8" filter="url(#filter0_d_609_412)">
<path fill-rule="evenodd" clip-rule="evenodd" d="M15.7829 12.6569C12.0529 13.3086 11.9655 20.3535 13.5327 23.1045C14.8988 25.448 17.8509 25.2908 20.9291 25.3682C25.4158 25.4874 29.9925 25.9449 31.7071 22.261C32.2501 20.9419 32.4936 19.5279 32.4214 18.1124C32.3489 16.697 31.9618 14.7645 31.2862 14.0497C30.7711 13.503 30.0777 13.1382 29.3182 13.0143C29.3763 12.1543 29.1168 11.3021 28.5848 10.6056C28.0528 9.90912 27.282 9.41242 26.4061 9.20175C23.991 8.84432 21.536 8.80381 19.1096 9.08022C18.2062 9.21589 17.3804 9.647 16.7735 10.2997C16.1666 10.9524 15.8164 11.7849 15.7829 12.6569ZM26.0789 10.2848C23.8564 10.0674 21.6141 10.1163 19.4043 10.4301C16.6533 11.0473 17.8696 13.9448 16.5659 14.1045C13.6039 14.4905 13.976 20.1521 14.9275 22.1192C15.0748 22.4511 15.3057 22.7431 15.5999 22.9693C15.894 23.1954 16.2421 23.3487 16.6134 23.4155C20.0262 23.805 23.4666 23.9301 26.9006 23.7896C27.6356 23.7795 28.3538 23.5787 28.9781 23.2086C29.6025 22.8385 30.1095 22.3132 30.4446 21.6891C31.329 19.5719 31.4242 17.229 30.7143 15.0528C30.5301 14.7281 30.2657 14.4511 29.9442 14.2456C29.6226 14.0401 29.2535 13.9123 28.8687 13.8733C27.8821 13.7161 29.0148 10.9663 26.0914 10.2943L26.0789 10.2848Z" fill="white"/>
<path fill-rule="evenodd" clip-rule="evenodd" d="M23.8158 14.5294C23.5358 13.911 21.0378 13.6683 19.5114 15.6257C19.0617 16.2092 18.7901 16.908 18.7283 17.6394C18.6666 18.3709 18.8175 19.1046 19.1631 19.7539C19.5087 20.4033 20.0346 20.9412 20.6788 21.3043C21.3231 21.6674 22.0588 21.8405 22.7991 21.8031C23.7439 21.7624 24.6394 21.3742 25.3106 20.7146C25.9818 20.0549 26.3805 19.1711 26.4287 18.2359C26.6055 15.7151 24.4416 14.1219 23.8171 14.5307L23.8158 14.5294ZM23.6287 15.1453C23.2507 15.4008 21.8404 14.6827 20.7255 16.4702C18.7191 19.6963 24.3449 21.8453 24.9474 18.08C25.0411 17.517 24.9661 16.9391 24.7317 16.4177C24.4974 15.8964 24.1139 15.4545 23.6287 15.1465V15.1453Z" fill="white"/>
<path d="M26.4741 3.83923C26.4995 3.89079 26.5348 3.93681 26.5781 3.97462C26.6214 4.01242 26.6717 4.04127 26.7262 4.0595C26.7807 4.07772 26.8383 4.08495 26.8956 4.08078C26.9529 4.07661 27.0088 4.06111 27.0601 4.03518C27.5807 3.7557 28.1153 3.50336 28.662 3.27918C28.703 3.49258 28.7255 3.70912 28.7292 3.92638C28.7483 4.454 28.6926 4.98729 28.6935 5.23672C28.6598 5.5243 28.6657 5.81515 28.7111 6.10111C28.7583 6.2671 28.8592 6.41274 28.9981 6.51518C29.4764 6.89776 30.0565 7.13169 30.6664 7.188C31.5043 7.29568 32.478 7.13451 33.2527 7.2019C33.2133 7.51451 33.0227 8.56608 33.0234 9.01091C33.0111 9.27371 33.0914 9.53248 33.2503 9.74217C33.505 9.99538 33.8081 10.1946 34.1416 10.3278C34.4751 10.461 34.832 10.5256 35.191 10.5175C35.6479 10.4795 36.1077 10.498 36.56 10.5728C36.6863 10.6534 36.8 10.7259 36.7526 11.0512L36.6909 11.9006L36.4517 13.2234C36.4213 13.3524 36.4434 13.4883 36.5131 13.6011C36.5828 13.7139 36.6945 13.7944 36.8236 13.8249C36.9527 13.8553 37.0886 13.8332 37.2014 13.7635C37.3142 13.6938 37.3947 13.5821 37.4251 13.453L37.7551 12.0993L37.9307 11.127C38.0159 10.7771 37.9722 10.4082 37.8077 10.0878C37.6431 9.76743 37.3687 9.51705 37.0346 9.38245C36.5697 9.224 36.0823 9.14128 35.5912 9.13743L34.5832 9.04569C33.9671 9.00834 35.0196 6.99549 34.8524 6.33785C34.8153 6.19402 34.7413 6.06234 34.6378 5.95582C34.5343 5.84929 34.4048 5.77159 34.2621 5.73039C33.1169 5.55513 31.956 5.50625 30.8001 5.58465C30.5335 5.55682 30.1529 5.65187 30.0233 5.40922C29.8936 5.16656 30.0663 3.64141 29.8978 3.12515C29.8405 2.70875 29.6206 2.33201 29.2861 2.07744C29.1787 2.02827 29.0623 2.0019 28.9441 2.00001C28.826 1.99812 28.7088 2.02075 28.5999 2.06646C27.9386 2.40878 27.2981 2.78969 26.6816 3.20723C26.6209 3.22858 26.566 3.26357 26.5211 3.3095C26.4761 3.35543 26.4423 3.41108 26.4222 3.47215C26.4022 3.53322 26.3964 3.59808 26.4054 3.66173C26.4144 3.72537 26.4379 3.7861 26.4741 3.83923Z" fill="white"/>
<path d="M17.6404 30.5431C17.5221 30.6145 16.6451 31.2282 16.0957 31.5166C16.033 31.3054 15.9876 31.0896 15.9601 30.8711C15.8935 30.3586 15.8786 29.8092 15.8588 29.5628C15.8471 29.2748 15.8083 28.9886 15.7429 28.7079C15.6772 28.5492 15.56 28.4173 15.4102 28.3334C14.8986 27.9975 14.3044 27.8092 13.6928 27.7892C12.8452 27.7697 11.9583 28.0778 11.1107 28.0583C11.1551 27.4532 11.1648 26.8461 11.14 26.2399C11.1208 25.9768 11.0121 25.7281 10.8319 25.5353C10.2644 25.1111 9.5528 24.9272 8.85083 25.0232C8.40009 25.1132 7.94019 25.1489 7.48096 25.1294C7.31834 25.1024 7.25179 24.9545 7.23696 24.6786L7.18259 23.8187L7.27104 22.4661C7.27795 22.4013 7.27201 22.3359 7.25356 22.2734C7.23511 22.211 7.20451 22.1528 7.16353 22.1023C7.12254 22.0517 7.07198 22.0097 7.01473 21.9787C6.95748 21.9477 6.89467 21.9283 6.82992 21.9216C6.76617 21.9129 6.70132 21.9171 6.63923 21.934C6.57715 21.9509 6.51909 21.9801 6.46852 22.0199C6.41796 22.0597 6.37591 22.1092 6.34489 22.1656C6.31387 22.2219 6.2945 22.284 6.28795 22.348L6.05907 23.7228L6.00012 24.7158C6.02003 25.7826 6.50301 26.1669 7.06974 26.4132C7.56242 26.5249 8.06966 26.558 8.57269 26.5114C8.95459 26.499 9.44735 26.4595 9.56561 26.4792C9.68388 26.4989 9.5141 27.7013 9.4551 28.4207C9.47463 28.6883 9.52766 28.9523 9.61293 29.2067C9.66666 29.3419 9.75347 29.4615 9.86541 29.5544C9.97735 29.6474 10.1108 29.7108 10.2536 29.7388C11.4011 29.7844 12.5502 29.7057 13.6808 29.5041C13.9469 29.5484 14.3287 29.3536 14.4643 29.6345C14.5999 29.9153 14.6469 31.1842 14.8934 31.8026C14.9422 32.0089 15.0342 32.2026 15.1633 32.3708C15.2925 32.5389 15.4558 32.6778 15.6426 32.7781C15.7541 32.8169 15.8728 32.8308 15.9902 32.8189C16.1077 32.8069 16.2212 32.7694 16.3226 32.709C16.9283 32.2975 17.5098 31.8515 18.0643 31.3733C18.1213 31.3472 18.172 31.309 18.2129 31.2615C18.2537 31.2139 18.2838 31.1581 18.3011 31.0978C18.3184 31.0375 18.3224 30.9742 18.3129 30.9122C18.3034 30.8503 18.2805 30.7911 18.246 30.7387C18.2115 30.6864 18.166 30.6422 18.1127 30.6091C18.0595 30.576 17.9997 30.5548 17.9375 30.5469C17.8753 30.5391 17.8121 30.5448 17.7523 30.5637C17.6925 30.5826 17.6375 30.6143 17.5911 30.6564L17.6404 30.5431Z" fill="white"/>
</g>
<defs>
<filter id="filter0_d_609_412" x="0" y="0" width="39.9731" height="38.8232" filterUnits="userSpaceOnUse" color-interpolation-filters="sRGB">
<feFlood flood-opacity="0" result="BackgroundImageFix"/>
<feColorMatrix in="SourceAlpha" type="matrix" values="0 0 0 0 0 0 0 0 0 0 0 0 0 0 0 0 0 0 127 0" result="hardAlpha"/>
<feOffset dx="-2" dy="2"/>
<feGaussianBlur stdDeviation="2"/>
<feComposite in2="hardAlpha" operator="out"/>
<feColorMatrix type="matrix" values="0 0 0 0 0 0 0 0 0 0 0 0 0 0 0 0 0 0 0.7 0"/>
<feBlend mode="normal" in2="BackgroundImageFix" result="effect1_dropShadow_609_412"/>
<feBlend mode="normal" in="SourceGraphic" in2="effect1_dropShadow_609_412" result="shape"/>
</filter>
</defs>
</svg>
