<svg width="38" height="45" viewBox="0 0 38 45" fill="none" xmlns="http://www.w3.org/2000/svg">
<g filter="url(#filter0_d_609_403)">
<g filter="url(#filter1_i_609_403)">
<path d="M27.6035 31.7246L25.8036 32.5965L26.8088 34.6719C27.2904 35.666 28.4866 36.0815 29.4807 35.6L27.6035 31.7246Z" fill="#B6B6B6"/>
</g>
<path d="M19.0435 18.9627C16.2659 20.3081 14.1501 22.3011 12.9641 24.4117C11.7774 26.5241 11.5414 28.7081 12.4131 30.5078C13.2848 32.3074 15.1448 33.4762 17.538 33.8545C19.9293 34.2324 22.8048 33.8078 25.5824 32.4624C28.36 31.117 30.4758 29.124 31.6617 27.0133C32.8485 24.901 33.0844 22.717 32.2127 20.9173C31.341 19.1177 29.4811 17.9489 27.0879 17.5706C24.6966 17.1927 21.8211 17.6173 19.0435 18.9627Z" fill="#B22219" stroke="#991911"/>
<mask id="path-3-inside-1_609_403" fill="white">
<path d="M17.4563 28.3029L17.5073 28.2782C18.5369 29.5296 21.127 29.6207 23.6207 28.4128C26.1145 27.2049 27.6487 25.1161 27.3051 23.5324L27.3561 23.5077L22.9036 14.3154L13.0038 19.1106L17.4563 28.3029Z"/>
</mask>
<path d="M17.4563 28.3029L17.5073 28.2782C18.5369 29.5296 21.127 29.6207 23.6207 28.4128C26.1145 27.2049 27.6487 25.1161 27.3051 23.5324L27.3561 23.5077L22.9036 14.3154L13.0038 19.1106L17.4563 28.3029Z" fill="#B22219"/>
<path d="M17.4563 28.3029L17.8922 29.2029L16.9922 29.6388L16.5563 28.7389L17.4563 28.3029ZM17.5073 28.2782L17.0713 27.3783L17.7795 27.0352L18.2795 27.6429L17.5073 28.2782ZM27.3051 23.5324L26.3278 23.7445L26.161 22.9755L26.8692 22.6324L27.3051 23.5324ZM27.3561 23.5077L28.2561 23.0718L28.692 23.9718L27.792 24.4077L27.3561 23.5077ZM22.9036 14.3154L22.4676 13.4154L23.3676 12.9795L23.8035 13.8795L22.9036 14.3154ZM13.0038 19.1106L12.1038 19.5466L11.6679 18.6466L12.5678 18.2107L13.0038 19.1106ZM17.4563 28.3029L17.0204 27.403L17.0713 27.3783L17.5073 28.2782L17.9432 29.1782L17.8922 29.2029L17.4563 28.3029ZM17.5073 28.2782L18.2795 27.6429C18.5394 27.9587 19.1089 28.2439 20.0409 28.2681C20.948 28.2916 22.0614 28.057 23.1848 27.5128L23.6207 28.4128L24.0567 29.3128C22.6863 29.9765 21.2578 30.3003 19.989 30.2674C18.7451 30.2352 17.5048 29.8491 16.735 28.9136L17.5073 28.2782ZM23.6207 28.4128L23.1848 27.5128C24.3082 26.9687 25.1826 26.2405 25.7265 25.5141C26.2853 24.7679 26.4146 24.1442 26.3278 23.7445L27.3051 23.5324L28.2824 23.3204C28.5393 24.5043 28.0733 25.7168 27.3274 26.7129C26.5666 27.7289 25.427 28.649 24.0567 29.3128L23.6207 28.4128ZM27.3051 23.5324L26.8692 22.6324L26.9202 22.6077L27.3561 23.5077L27.792 24.4077L27.741 24.4324L27.3051 23.5324ZM27.3561 23.5077L26.4561 23.9436L22.0036 14.7514L22.9036 14.3154L23.8035 13.8795L28.2561 23.0718L27.3561 23.5077ZM22.9036 14.3154L23.3395 15.2154L13.4397 20.0106L13.0038 19.1106L12.5678 18.2107L22.4676 13.4154L22.9036 14.3154ZM13.0038 19.1106L13.9038 18.6747L18.3563 27.867L17.4563 28.3029L16.5563 28.7389L12.1038 19.5466L13.0038 19.1106Z" fill="#991911" mask="url(#path-3-inside-1_609_403)"/>
<path d="M12.5046 5.46338C7.9262 7.68103 5.81614 12.3006 7.45623 15.6866C9.09632 19.0726 14.0292 20.2808 18.6076 18.0631C23.1859 15.8455 25.296 11.2259 23.6559 7.83989C22.0158 4.4539 17.0829 3.24574 12.5046 5.46338Z" fill="#B22219" stroke="#991911"/>
</g>
<defs>
<filter id="filter0_d_609_403" x="-9.77516e-05" y="3.44326" width="35.6376" height="40.757" filterUnits="userSpaceOnUse" color-interpolation-filters="sRGB">
<feFlood flood-opacity="0" result="BackgroundImageFix"/>
<feColorMatrix in="SourceAlpha" type="matrix" values="0 0 0 0 0 0 0 0 0 0 0 0 0 0 0 0 0 0 127 0" result="hardAlpha"/>
<feOffset dx="-2" dy="4"/>
<feGaussianBlur stdDeviation="2.2"/>
<feComposite in2="hardAlpha" operator="out"/>
<feColorMatrix type="matrix" values="0 0 0 0 0 0 0 0 0 0 0 0 0 0 0 0 0 0 0.4 0"/>
<feBlend mode="normal" in2="BackgroundImageFix" result="effect1_dropShadow_609_403"/>
<feBlend mode="normal" in="SourceGraphic" in2="effect1_dropShadow_609_403" result="shape"/>
</filter>
<filter id="filter1_i_609_403" x="25.8035" y="31.7246" width="3.67725" height="5.07568" filterUnits="userSpaceOnUse" color-interpolation-filters="sRGB">
<feFlood flood-opacity="0" result="BackgroundImageFix"/>
<feBlend mode="normal" in="SourceGraphic" in2="BackgroundImageFix" result="shape"/>
<feColorMatrix in="SourceAlpha" type="matrix" values="0 0 0 0 0 0 0 0 0 0 0 0 0 0 0 0 0 0 127 0" result="hardAlpha"/>
<feOffset dy="2"/>
<feGaussianBlur stdDeviation="0.5"/>
<feComposite in2="hardAlpha" operator="arithmetic" k2="-1" k3="1"/>
<feColorMatrix type="matrix" values="0 0 0 0 0 0 0 0 0 0 0 0 0 0 0 0 0 0 0.25 0"/>
<feBlend mode="normal" in2="shape" result="effect1_innerShadow_609_403"/>
</filter>
</defs>
</svg>
