<svg width="39" height="39" viewBox="0 0 39 39" fill="none" xmlns="http://www.w3.org/2000/svg">
<g filter="url(#filter0_d_724_1092)">
<path d="M4.67059 14.736C4.67059 10.2556 4.67059 8.01541 5.54254 6.30411C6.30953 4.79881 7.53337 3.57497 9.03867 2.80798C10.75 1.93604 12.9902 1.93604 17.4706 1.93604H23.8706C28.351 1.93604 30.5912 1.93604 32.3025 2.80798C33.8078 3.57497 35.0317 4.79881 35.7986 6.30411C36.6706 8.01541 36.6706 10.2556 36.6706 14.736V21.136C36.6706 25.6165 36.6706 27.8567 35.7986 29.568C35.0317 31.0733 33.8078 32.2971 32.3025 33.0641C30.5912 33.936 28.351 33.936 23.8706 33.936H17.4706C12.9902 33.936 10.75 33.936 9.03867 33.0641C7.53337 32.2971 6.30953 31.0733 5.54254 29.568C4.67059 27.8567 4.67059 25.6165 4.67059 21.136V14.736Z" fill="#2C5E9A" shape-rendering="crispEdges"/>
<path d="M17.0094 34.5562C14.4767 34.326 12.5541 35.3441 9.14258 34.1984C8.94765 34.1156 8.7652 34.0261 8.59604 33.9328C6.534 32.6571 6.03375 31.8128 4.95385 29.8679C4.73734 29.4307 4.54196 28.9141 4.38912 28.312C3.78388 25.5498 4.1009 22.9561 4.06015 21.136C4.06158 20.5137 4.05114 19.9862 4.0184 19.5862C3.89027 18.0214 4.27766 17.8563 4.19162 15.6341C4.1794 15.3185 4.16993 15.0205 4.16305 14.736C4.12547 13.0178 4.15986 11.7825 4.34872 10.1009C4.46748 9.30327 4.51696 7.72506 5.3119 6.18659C6.1403 4.56727 7.66502 3.22831 8.921 2.57703C9.32358 2.35829 9.69882 2.21097 10.0007 2.10079C12.1895 1.35977 14.706 1.77852 16.1871 1.8045C16.6493 1.82337 17.0195 1.85062 17.2956 1.87881C17.4146 1.89078 17.4706 1.91582 17.4706 1.94054C17.4706 1.94056 17.4706 1.94057 17.4706 1.94059C17.4707 1.97137 17.3838 2.00163 17.2317 2.00552C16.4951 2.0259 15.384 2.06908 14.0868 2.20735C11.926 2.52039 11.3862 2.1376 9.18093 3.08719C8.9652 3.20247 8.73771 3.33908 8.50079 3.5043C7.25951 4.38435 6.52662 5.41176 5.99914 6.53676C5.45665 7.71616 5.34274 9.1607 5.2147 11.1413C5.12615 12.6298 5.19107 13.6888 5.2566 14.736C5.36052 16.3459 5.4948 17.9414 5.31267 21.136C5.30872 21.2064 5.30463 21.2769 5.30038 21.3476C5.09978 25.4713 5.19454 27.0291 6.31213 29.1758C6.71525 29.8337 7.25823 30.5549 8.11658 31.2687C8.5306 31.6105 8.9925 31.918 9.49265 32.1731C11.5764 33.1808 14.8746 32.958 17.4706 33.0882C19.5374 33.1411 21.3564 33.1851 22.6325 33.1743C23.0292 33.1709 23.4425 33.167 23.8706 33.1627C26.2684 33.0536 29.4726 33.4226 31.9347 32.3422C32.6092 32.0052 33.244 31.558 33.8013 31.0157C34.3162 30.5156 34.7713 29.9087 35.1209 29.2226C36.1384 27.1192 35.8024 23.9985 35.8588 21.136C35.858 19.6108 35.8706 18.0956 35.9113 16.6299C35.9281 16.0248 35.9454 15.3902 35.9631 14.736C35.9697 12.0197 36.3806 8.79365 35.3731 6.52091C34.581 4.82606 33.2282 3.6829 32.1545 3.09857C32.0762 3.05499 31.9986 3.01443 31.9227 2.97693C28.918 1.85796 27.926 2.19916 24.7418 2.17851C24.4669 2.18455 24.1771 2.18903 23.8706 2.19158C22.1347 2.20616 20.0096 2.15751 18.172 2.02493C17.0857 1.94654 17.3318 1.8374 18.4253 1.78518C20.0243 1.70882 21.3368 1.75984 22.1607 1.62344C22.8366 1.51153 23.3529 1.42793 23.8706 1.37925C24.6175 1.31025 25.3603 1.30808 26.5926 1.41505C28.6766 1.60769 29.7018 1.30163 30.9865 1.61572C31.5561 1.775 31.8661 1.9063 32.5665 2.28995C33.2644 2.7602 34.7671 3.36313 36.3172 6.03987C36.4446 6.27705 36.5616 6.53339 36.6647 6.80589C37.6931 10.27 37.3198 12.7599 37.4486 14.736C37.4798 16.4375 37.4985 17.7421 37.5168 18.8227C37.5271 19.4389 37.5219 20.2321 37.5098 21.136C37.372 23.6045 37.7867 26.9439 36.4804 29.9153C36.4567 29.9635 36.4327 30.0113 36.4084 30.0587C35.7816 31.3141 34.5023 32.853 32.667 33.7794C29.4235 35.2032 26.09 34.6231 23.8706 34.7873C23.413 34.7957 23.002 34.8059 22.6499 34.8182C19.7367 34.9202 19.5418 34.7187 17.4706 34.5834C17.3239 34.574 17.173 34.5649 17.0094 34.5562Z" fill="white" fill-opacity="0.8"/>
<path d="M27.2611 16.7947C27.244 16.7168 27.1976 16.6485 27.1316 16.604C27.0655 16.5594 26.9849 16.5419 26.9063 16.5551C26.8664 16.5615 26.8282 16.5759 26.7939 16.5973C26.7597 16.6188 26.7301 16.6469 26.707 16.68C26.6838 16.7131 26.6675 16.7505 26.6591 16.79C26.6506 16.8295 26.6502 16.8703 26.6579 16.91C26.7791 17.8125 26.8295 18.7231 26.8087 19.6335C26.8087 22.2151 26.5692 25.3822 26.5603 26.1452C26.5603 26.4025 26.2764 26.4912 25.9748 26.6065C25.3981 26.8194 24.644 26.917 24.2005 27.0412C23.1913 27.2956 22.1608 27.456 21.1221 27.5203C19.5607 27.6267 17.9816 27.5735 16.3581 27.5203C15.6484 27.5203 14.3354 27.5735 13.1644 27.4759C12.5489 27.4658 11.9431 27.3205 11.3901 27.0501C11.3403 26.8693 11.3018 26.6856 11.2747 26.5C11.1634 25.3207 11.1248 24.1356 11.1594 22.9515C11.1594 20.4497 11.3191 17.5576 11.461 16.1914C11.4718 15.4509 11.54 14.7123 11.6651 13.9824C11.7561 13.5872 11.9981 13.2433 12.3393 13.0243C13.4012 12.5767 14.5404 12.3416 15.6927 12.3323C17.9993 12.1815 20.5366 12.3323 21.0955 12.3323C21.1588 12.3208 21.2161 12.2874 21.2574 12.2379C21.2987 12.1885 21.3213 12.1261 21.3213 12.0617C21.3213 11.9973 21.2987 11.935 21.2574 11.8855C21.2161 11.8361 21.1588 11.8027 21.0955 11.7911C18.9815 11.6385 16.86 11.6178 14.7435 11.729C13.7824 11.7602 12.8365 11.9772 11.9578 12.3678C11.6989 12.5253 11.4738 12.7326 11.2956 12.9778C11.1174 13.223 10.9897 13.5012 10.9199 13.7961C10.753 14.5761 10.6492 15.3682 10.6094 16.1648C10.4142 17.7617 10.1569 21.4078 10.1481 24.1491C10.1108 25.2192 10.1911 26.2902 10.3876 27.3428C10.4393 27.5617 10.5607 27.7578 10.7336 27.9017C11.266 28.2451 11.876 28.4495 12.5079 28.4961C13.7789 28.6122 15.0564 28.6418 16.3315 28.5848C17.9816 28.5848 19.5873 28.5848 21.1664 28.4606C22.2609 28.3708 23.3448 28.1807 24.4045 27.8929C25.1571 27.7447 25.8939 27.5249 26.6046 27.2364C26.8186 27.1465 27.0029 26.9981 27.1363 26.8083C27.2697 26.6184 27.3468 26.3947 27.3587 26.1629C27.3587 25.4 27.5095 22.2329 27.4652 19.6513C27.4693 18.6953 27.4011 17.7404 27.2611 16.7947Z" fill="white" fill-opacity="0.8"/>
<path d="M30.9694 8.70395C30.902 8.30917 30.7164 7.94414 30.4371 7.65712C29.4793 7.23652 28.409 7.14602 27.3942 7.39984C25.2631 7.7519 23.1795 8.34722 21.1841 9.17414C21.0637 9.22446 20.9639 9.31417 20.901 9.42859C20.8382 9.54301 20.816 9.67536 20.8382 9.80401C20.8575 9.90308 20.8986 9.99663 20.9584 10.0779C21.0182 10.1592 21.0953 10.2263 21.1841 10.2742C22.0476 10.5984 22.9383 10.8448 23.8456 11.0105C23.9901 11.052 24.1298 11.1085 24.2626 11.1791C23.4907 12.0662 22.302 13.5212 21.0333 15.1269C16.8194 20.3078 16.642 20.6006 17.1742 21.399C17.4936 21.8958 18.2566 22.0644 19.0106 21.399C23.4464 17.8504 25.9925 15.9253 27.3143 14.8874L27.7757 14.5414C28.0319 15.17 28.3625 15.7657 28.7604 16.3157C28.8875 16.4927 29.0753 16.6168 29.288 16.6643C29.5007 16.7117 29.7234 16.6792 29.9137 16.5729C30.3313 16.2279 30.6216 15.7533 30.7387 15.2245C31.0011 14.2335 31.147 13.2152 31.1734 12.1904C31.2469 11.0243 31.1784 9.85356 30.9694 8.70395ZM30.171 12.155C30.1561 13.0943 30.034 14.0289 29.8072 14.9406C29.7525 15.176 29.6659 15.4028 29.5499 15.6148C29.4612 15.4729 29.2128 15.3132 29.0886 15.0914C28.7426 14.4882 28.441 13.7696 28.2902 13.5478C28.2478 13.4958 28.1943 13.454 28.1337 13.4252C28.0731 13.3964 28.0069 13.3815 27.9398 13.3815C27.8727 13.3815 27.8065 13.3964 27.7458 13.4252C27.6852 13.454 27.6318 13.4958 27.5894 13.5478C27.3275 13.8109 27.0489 14.0568 26.7554 14.2841C25.4602 15.2777 22.9052 17.2649 18.5848 20.9377C18.2211 21.2393 17.8662 21.2837 17.6977 21.053C17.3517 20.5385 17.8928 19.8199 21.4769 15.5172C23.0472 13.6454 24.4755 11.9687 25.2118 11.2323C25.2716 11.1582 25.3042 11.0658 25.3042 10.9706C25.3042 10.8754 25.2716 10.783 25.2118 10.7089C24.9593 10.4852 24.654 10.3295 24.3247 10.2565C23.748 10.079 22.5504 9.97257 21.9648 9.78627C23.4892 9.25315 25.0522 8.83793 26.6401 8.54426C27.4285 8.38412 28.2309 8.30387 29.0354 8.30473C29.2944 8.2931 29.5518 8.35131 29.7806 8.47329C29.8693 8.53539 29.8871 8.71282 29.9403 8.93461C30.1476 9.99472 30.2251 11.0761 30.171 12.155Z" fill="white" fill-opacity="0.8"/>
</g>
<defs>
<filter id="filter0_d_724_1092" x="-5.00679e-06" y="-0.000154257" width="38.853" height="38.8385" filterUnits="userSpaceOnUse" color-interpolation-filters="sRGB">
<feFlood flood-opacity="0" result="BackgroundImageFix"/>
<feColorMatrix in="SourceAlpha" type="matrix" values="0 0 0 0 0 0 0 0 0 0 0 0 0 0 0 0 0 0 127 0" result="hardAlpha"/>
<feOffset dx="-1.33072" dy="1.33072"/>
<feGaussianBlur stdDeviation="1.33072"/>
<feComposite in2="hardAlpha" operator="out"/>
<feColorMatrix type="matrix" values="0 0 0 0 0 0 0 0 0 0 0 0 0 0 0 0 0 0 0.7 0"/>
<feBlend mode="normal" in2="BackgroundImageFix" result="effect1_dropShadow_724_1092"/>
<feBlend mode="normal" in="SourceGraphic" in2="effect1_dropShadow_724_1092" result="shape"/>
</filter>
</defs>
</svg>
