<svg width="37" height="35" viewBox="0 0 37 35" fill="none" xmlns="http://www.w3.org/2000/svg">
<g filter="url(#filter0_d_784_1427)">
<path d="M25.9567 18.5309C25.8507 16.0873 25.463 13.5682 25.1826 11.2349C24.8223 7.75709 24.5361 7.11282 19.7274 7.70819C14.4483 8.34657 10.6672 8.57725 7.09524 9.83004C7.03146 9.8541 6.9745 9.89332 6.92928 9.94432C6.88405 9.99532 6.85192 10.0566 6.83566 10.1228C6.78958 10.0756 6.73112 10.0425 6.66701 10.0271C6.6029 10.0117 6.53575 10.0148 6.4733 10.0359C6.41085 10.057 6.35564 10.0954 6.31402 10.1465C6.27241 10.1976 6.24609 10.2595 6.23809 10.3249C5.6534 14.8054 6.2926 19.3603 6.5946 23.7765C6.66553 24.7736 7.0829 28.2184 8.05384 28.6959C9.02477 29.1735 10.1358 28.7225 10.9173 28.6903C13.4332 28.5511 15.9369 28.2415 18.411 27.7638C20.7039 27.3638 24.6723 27.606 25.5482 26.5002C26.2714 25.5589 26.1344 25.1237 25.9567 18.5309ZM24.4815 25.6589C24.1956 26.005 19.5008 26.2203 18.1699 26.4554C15.7533 26.9438 13.3099 27.2892 10.8526 27.4896C10.1182 27.645 9.3671 27.7074 8.61708 27.6755C7.66373 26.3211 6.94573 16.6974 6.88908 15.692C6.7625 13.9586 6.77665 12.2177 6.9314 10.4865C7.3066 10.889 8.17928 9.97559 12.7775 9.44459C21.1065 8.64529 21.2035 8.59882 22.2922 8.63694C22.6858 8.63473 23.0773 8.69479 23.4521 8.81489C23.8048 9.62021 23.983 10.4911 23.975 11.3702C24.2321 13.7456 24.5634 16.2496 24.6515 18.5797C24.7775 25.0499 24.8833 25.1507 24.4815 25.6589Z" fill="#D8D8D8"/>
<path d="M23.6656 19.6926C23.6098 18.4164 23.4619 17.1459 23.2231 15.8909C22.8537 13.7994 23.1833 11.5329 22.3631 10.6731C21.9211 10.2045 21.4054 10.4165 21.0455 10.4529C16.0606 10.7595 12.0437 10.8787 8.71395 11.8583C8.65452 11.8741 8.60032 11.9053 8.55681 11.9488C8.51329 11.9923 8.482 12.0464 8.46608 12.1058C8.45016 12.1652 8.45018 12.2278 8.46613 12.2872C8.48209 12.3466 8.51342 12.4007 8.55696 12.4442C8.64465 19.5079 8.29139 18.9785 8.7857 21.5503C9.20983 23.7531 9.15651 23.7268 21.5838 22.0089C22.2907 22.0363 22.9806 21.7882 23.5082 21.3169C23.9213 20.8117 23.6757 20.1059 23.6656 19.6926ZM22.2579 18.772C21.2701 17.9519 20.4328 16.9305 19.473 15.9608C20.1877 15.3035 20.9507 14.7006 21.7556 14.1572C21.8306 16.0854 22.0759 16.4771 22.2579 18.772ZM9.35793 12.4293C10.4755 12.1653 11.6103 11.9811 12.754 11.8781C13.9045 11.7758 21.0186 11.5446 21.5184 11.437C21.6975 11.9765 21.7705 12.5456 21.7335 13.1128C20.5518 13.5141 19.536 14.2948 18.8441 15.3334C17.364 14.007 15.8083 13.1433 14.0107 14.0383C12.2131 14.9333 11.2243 16.1899 9.48779 18.164C9.50891 13.7136 9.53111 15.2532 9.35793 12.4293ZM22.1371 20.5752C21.4186 20.7329 25.0191 20.1398 11.7087 22.0437C11.4193 22.087 10.2282 22.2508 10.0278 22.0522C9.75676 21.1449 9.60236 20.2067 9.56837 19.2603C10.7756 18.0111 12.0879 16.8678 13.4908 15.8432C15.1991 14.876 15.6983 14.6354 17.5751 15.9233C19.452 17.2111 20.451 18.7105 22.4009 19.8609C22.4081 20.1044 22.2678 20.5378 22.1371 20.5752Z" fill="#D8D8D8"/>
<path d="M22.4783 23.673C21.9313 23.5501 21.3657 23.5339 20.8126 23.6251C19.6106 23.7291 18.4348 24.0345 17.3342 24.5287C17.2904 24.5439 17.2501 24.5676 17.2156 24.5984C17.181 24.6292 17.1529 24.6666 17.1327 24.7083C17.1126 24.75 17.1008 24.7952 17.0982 24.8415C17.0955 24.8877 17.102 24.934 17.1172 24.9777C17.1325 25.0215 17.1562 25.0618 17.187 25.0963C17.2178 25.1309 17.2551 25.159 17.2968 25.1792C17.3385 25.1993 17.3838 25.2111 17.43 25.2137C17.4763 25.2164 17.5226 25.2099 17.5663 25.1947C18.4561 24.9903 19.3583 24.8448 20.2672 24.7591C20.944 24.6073 21.6301 24.5007 22.3211 24.4399C22.3748 24.4604 22.4323 24.4689 22.4896 24.4649C22.5469 24.4609 22.6027 24.4444 22.6531 24.4168C22.7034 24.3891 22.7471 24.3508 22.7812 24.3045C22.8153 24.2583 22.839 24.2051 22.8505 24.1489C22.862 24.0926 22.8612 24.0344 22.8481 23.9785C22.8349 23.9226 22.8098 23.8701 22.7744 23.8249C22.739 23.7796 22.6942 23.7426 22.643 23.7164C22.5919 23.6901 22.5357 23.6753 22.4783 23.673Z" fill="#D8D8D8"/>
<path d="M34.1544 12.588C34.8722 9.27825 34.9249 9.17162 34.8954 8.74105C34.8927 8.49097 34.8189 8.24683 34.6827 8.03712C34.5464 7.82741 34.3533 7.66079 34.1259 7.55671C34.0245 7.52954 34.4076 7.63219 25.6992 4.57423C23.8108 3.90526 21.8624 3.41958 19.8809 3.12391C17.6722 2.89436 16.915 3.33151 16.6028 5.5785C16.5305 6.02884 16.5256 6.48744 16.5884 6.93922C16.6022 7.031 16.6519 7.11353 16.7266 7.16864C16.8013 7.22376 16.8948 7.24694 16.9866 7.2331C17.0784 7.21926 17.1609 7.16953 17.216 7.09484C17.2711 7.02016 17.2943 6.92663 17.2805 6.83485C17.1546 5.8847 17.391 4.92197 17.9427 4.13821C18.9896 3.29566 24.5765 5.38438 25.3718 5.70616C25.4844 5.73635 33.6119 8.84396 33.5952 8.99647C33.5785 9.14898 32.9104 12.3633 32.8923 12.4309C32.7383 13.6818 30.8658 19.3629 30.4887 20.5902C30.2089 21.8557 29.8544 23.1035 29.427 24.327C29.1308 24.4409 28.7719 24.2481 27.4396 23.7221C27.3955 23.6944 27.3464 23.6757 27.295 23.667C27.2437 23.6583 27.1911 23.6598 27.1403 23.6714C27.0896 23.6831 27.0416 23.7046 26.9991 23.7347C26.9567 23.7649 26.9206 23.8032 26.8929 23.8473C26.8652 23.8914 26.8465 23.9405 26.8378 23.9919C26.8291 24.0433 26.8306 24.0958 26.8422 24.1466C26.8539 24.1974 26.8754 24.2454 26.9055 24.2878C26.9357 24.3303 26.974 24.3664 27.0181 24.3941C28.7002 25.1467 29.1688 25.3809 29.7446 25.1246C30.3205 24.8683 30.3813 24.2808 30.526 23.9211C32.1342 18.6401 33.8994 14.1257 34.1544 12.588Z" fill="#D8D8D8"/>
<path d="M29.0621 18.9756C29.6237 18.7275 29.7586 17.7734 29.8634 17.4272C30.277 15.8836 30.5031 14.7245 30.7992 13.4393C31.0939 12.5314 31.3149 11.6012 31.4599 10.6577C31.5126 9.37968 30.5088 9.34017 29.8674 9.12C28.6648 8.6054 27.3848 8.29508 26.0801 8.20182C26.0335 8.20122 25.9872 8.20981 25.9439 8.2271C25.9006 8.24439 25.8612 8.27003 25.8278 8.30258C25.7944 8.33512 25.7677 8.37392 25.7493 8.41677C25.7309 8.45961 25.7212 8.50566 25.7206 8.55228C25.72 8.5989 25.7286 8.64518 25.7458 8.68849C25.7631 8.73179 25.7888 8.77126 25.8213 8.80465C25.8539 8.83804 25.8927 8.86469 25.9355 8.88309C25.9784 8.90148 26.0244 8.91126 26.071 8.91185C27.5301 8.96469 30.3006 10.6127 30.2385 10.4391C28.7219 16.3243 29.5579 14.0607 28.6604 18.1313C28.3296 18.2842 27.7566 18.034 27.2579 17.9125C27.1619 17.9036 27.0659 17.9289 26.9869 17.9839C26.9078 18.039 26.8507 18.1203 26.8258 18.2133C26.8009 18.3064 26.8096 18.4053 26.8506 18.4925C26.8915 18.5797 26.962 18.6496 27.0496 18.6899C27.7083 18.8906 28.3434 19.3143 29.0621 18.9756Z" fill="#D8D8D8"/>
</g>
<defs>
<filter id="filter0_d_784_1427" x="0" y="1.06934" width="36.9014" height="33.8447" filterUnits="userSpaceOnUse" color-interpolation-filters="sRGB">
<feFlood flood-opacity="0" result="BackgroundImageFix"/>
<feColorMatrix in="SourceAlpha" type="matrix" values="0 0 0 0 0 0 0 0 0 0 0 0 0 0 0 0 0 0 127 0" result="hardAlpha"/>
<feOffset dx="-2" dy="2"/>
<feGaussianBlur stdDeviation="2"/>
<feComposite in2="hardAlpha" operator="out"/>
<feColorMatrix type="matrix" values="0 0 0 0 0 0 0 0 0 0 0 0 0 0 0 0 0 0 0.7 0"/>
<feBlend mode="normal" in2="BackgroundImageFix" result="effect1_dropShadow_784_1427"/>
<feBlend mode="normal" in="SourceGraphic" in2="effect1_dropShadow_784_1427" result="shape"/>
</filter>
</defs>
</svg>
