<svg width="40" height="40" viewBox="0 0 40 40" fill="none" xmlns="http://www.w3.org/2000/svg">
<g filter="url(#filter0_d_724_1189)">
<path d="M18.1557 4.48979C19.0821 4.08739 20.0755 3.86162 21.0848 3.82409C21.5108 3.82409 21.9502 3.82409 22.4162 3.75752C22.8822 3.69095 23.2816 3.75752 23.7476 3.75752C24.7465 3.70382 25.7443 3.88152 26.6633 4.27676C26.705 4.3072 26.7524 4.32897 26.8027 4.34078C26.8529 4.35259 26.9051 4.35419 26.9559 4.34551C27.0068 4.33682 27.0555 4.31801 27.099 4.29019C27.1425 4.26238 27.18 4.22612 27.2092 4.18356C27.2672 4.09817 27.2899 3.99363 27.2726 3.89186C27.2552 3.79009 27.1991 3.699 27.116 3.63769C26.1756 2.91338 25.0586 2.45371 23.8807 2.3063C23.3688 2.23986 22.8521 2.21759 22.3363 2.23973C21.8447 2.26377 21.3554 2.3216 20.8718 2.41281C19.7294 2.62834 18.6452 3.08198 17.6897 3.7442C17.6388 3.77551 17.5947 3.81658 17.5597 3.86505C17.5248 3.91351 17.4998 3.96841 17.4862 4.02658C17.4726 4.08475 17.4706 4.14504 17.4804 4.20398C17.4902 4.26291 17.5116 4.31932 17.5433 4.36996C17.6105 4.4647 17.7115 4.52997 17.8255 4.55227C17.9395 4.57458 18.0577 4.5522 18.1557 4.48979Z" fill="white" fill-opacity="0.8"/>
<path d="M37.5674 15.7266C37.5608 15.667 37.5425 15.6093 37.5134 15.5569C37.4843 15.5044 37.4451 15.4583 37.398 15.4211C37.3509 15.3839 37.297 15.3565 37.2392 15.3404C37.1814 15.3243 37.121 15.3198 37.0615 15.3272C36.945 15.3469 36.8403 15.4101 36.7686 15.504C36.697 15.5979 36.6636 15.7156 36.6754 15.8331C36.7553 16.4988 36.7952 17.1645 36.8085 17.8169C36.8226 18.4792 36.796 19.1417 36.7287 19.8007C36.6068 21.0417 36.3157 22.2601 35.8633 23.4221C35.4154 24.5899 34.8347 25.7023 34.1324 26.7373C32.6547 28.8219 30.5797 30.4096 28.1811 31.2906C25.7956 32.2287 23.2267 32.6068 20.6721 32.3957C19.2662 32.2725 17.8828 31.9636 16.558 31.477C15.214 31.015 13.9613 30.321 12.8568 29.4267C10.9576 27.813 9.51594 25.7285 8.67619 23.3821C7.80302 21.0091 7.47538 18.4699 7.71758 15.953C7.7237 15.9023 7.71978 15.8508 7.70603 15.8017C7.69228 15.7525 7.66897 15.7065 7.63745 15.6663C7.60592 15.6261 7.56679 15.5925 7.52229 15.5675C7.47779 15.5424 7.42878 15.5264 7.37808 15.5203C7.32738 15.5141 7.27596 15.5181 7.22678 15.5318C7.17759 15.5456 7.13159 15.5689 7.09141 15.6004C7.05123 15.6319 7.01766 15.6711 6.9926 15.7156C6.96754 15.7601 6.9515 15.8091 6.94538 15.8598C6.58755 18.5051 6.84265 21.1973 7.69096 23.7283C8.5117 26.307 9.99452 28.6254 11.9914 30.4518C13.1706 31.4839 14.5227 32.2997 15.9855 32.8617C17.4486 33.4394 18.9861 33.807 20.5522 33.9534C23.3481 34.1551 26.1524 33.6992 28.7403 32.622C31.3745 31.5881 33.6283 29.7712 35.1976 27.4163C35.9178 26.2838 36.5074 25.0734 36.955 23.8082C37.4075 22.5426 37.6852 21.2212 37.7805 19.8806V17.7903C37.7805 17.0314 37.6606 16.4056 37.5674 15.7266Z" fill="white" fill-opacity="0.8"/>
<path d="M31.3631 20.6397C30.9203 20.5986 30.4746 20.5986 30.0318 20.6397C28.1944 20.6397 24.2402 20.8794 20.712 21.0791C17.1838 21.2788 13.589 21.6782 13.589 21.6782C13.4713 21.765 13.3743 21.877 13.3052 22.0059C13.2362 22.1349 13.1967 22.2776 13.1896 22.4238C13.168 23.1396 13.2809 23.8532 13.5225 24.5274C13.8992 25.7759 14.5394 26.9291 15.3997 27.9091C16.2931 28.8472 17.37 29.5913 18.5633 30.0952C19.7567 30.5991 21.041 30.852 22.3363 30.8382C24.949 30.7341 27.4322 29.6726 29.3128 27.8559C30.5361 26.6532 31.4064 25.1382 31.8291 23.4756C32.0509 22.7494 32.0739 21.977 31.8957 21.2388C31.8589 21.1048 31.7917 20.981 31.6993 20.8771C31.607 20.7732 31.492 20.692 31.3631 20.6397ZM29.7255 24.7804C29.3592 25.5047 28.873 26.1619 28.2876 26.7242C26.6925 28.3296 24.5676 29.2998 22.3097 29.4535C21.1807 29.501 20.0541 29.315 19.0003 28.9072C17.9466 28.4994 16.9882 27.8787 16.1853 27.0837C15.5311 26.3991 15.0157 25.5943 14.6675 24.7138C14.3999 24.1115 14.2162 23.4754 14.1216 22.8232V22.3306C15.7727 22.1833 17.4302 22.121 19.0877 22.1442C22.8822 22.0643 27.7284 22.051 29.9519 22.051H30.6176C30.517 23.0137 30.2129 23.9441 29.7255 24.7804Z" fill="white" fill-opacity="0.8"/>
<path d="M10.8464 13.4232C11.5848 14.6236 12.2302 15.8787 12.7769 17.1777C12.8733 17.3819 13.026 17.5542 13.217 17.6745C13.4081 17.7948 13.6295 17.858 13.8553 17.8567C14.055 17.7993 14.2385 17.6959 14.391 17.5549C14.5436 17.4139 14.6611 17.2391 14.734 17.0446C15.2508 15.6216 15.8601 14.234 16.558 12.8906C17.277 11.9453 19.5537 11.2131 20.3658 10.6406C20.5439 10.544 20.6932 10.4019 20.7985 10.2289C20.9037 10.0558 20.9612 9.85786 20.965 9.65532C20.9213 9.4758 20.8407 9.30733 20.7284 9.16063C20.6161 9.01393 20.4745 8.89222 20.3126 8.80323C18.8432 8.24298 17.4073 7.59841 16.0122 6.87271C14.8938 5.99399 14.0816 3.47765 13.4026 2.61224C13.3104 2.47088 13.1867 2.35283 13.0411 2.26736C12.8956 2.18188 12.7322 2.13132 12.5639 2.11963C12.231 2.11963 11.8715 2.51905 11.6452 3.21137C11.3593 4.56421 10.9902 5.89813 10.5401 7.20555C10.0076 8.28398 7.53119 9.3491 6.61253 9.98817C6.42486 10.0917 6.26879 10.2442 6.16094 10.4294C6.05309 10.6146 5.9975 10.8257 6.00009 11.04C6.06281 11.2211 6.1681 11.3846 6.3071 11.5167C6.44611 11.6487 6.61477 11.7455 6.79892 11.7989C7.71758 12.2116 10.0342 12.651 10.8464 13.4232ZM10.1674 9.06951C10.7216 8.69454 11.1781 8.19238 11.4987 7.60497C11.6419 7.25955 11.7576 6.90342 11.8449 6.53986C12.1245 5.42149 12.271 4.10341 12.5372 3.3312L12.5639 3.10486C12.5639 3.17143 12.7236 3.22469 12.7769 3.31788C13.1896 3.98358 13.629 5.18184 14.1882 6.1937C14.4726 6.77005 14.8607 7.28908 15.3332 7.7248C15.7855 8.09515 16.2819 8.40818 16.811 8.65677C17.6232 9.02956 18.5418 9.37573 19.1809 9.69526L19.3407 9.78846H19.1942C18.5418 10.108 17.6365 10.4675 16.8643 10.8935C16.3088 11.163 15.8113 11.5384 15.3997 11.9986C14.7053 13.1701 14.1342 14.4105 13.6955 15.6998C13.2212 14.5222 12.6089 13.4049 11.8715 12.3714C11.3988 11.9704 10.8513 11.6672 10.2605 11.4793C9.43508 11.1864 8.47648 10.9601 7.77084 10.7604C8.35665 10.2944 9.36851 9.69526 10.1674 9.06951Z" fill="white" fill-opacity="0.8"/>
<path d="M23.0819 9.32267C23.078 9.52342 23.1309 9.72118 23.2346 9.89314C23.3382 10.0651 23.4884 10.2043 23.6677 10.2946C24.4532 10.8538 26.6633 11.5594 27.3557 12.4781C28.0277 13.768 28.6104 15.1025 29.0998 16.4723C29.1761 16.6619 29.2951 16.8313 29.4475 16.9676C29.5999 17.1038 29.7816 17.2031 29.9785 17.2578C30.2032 17.2619 30.4243 17.2014 30.6155 17.0833C30.8067 16.9653 30.9599 16.7948 31.0569 16.5921C31.5814 15.3333 32.2047 14.1179 32.9209 12.9574C33.7064 12.1585 35.9565 11.7724 36.8352 11.3996C37.3544 11.1733 37.5808 10.8671 37.6207 10.6541C37.6275 10.4405 37.5752 10.2293 37.4695 10.0437C37.3637 9.85805 37.2087 9.70528 37.0216 9.60226C36.1429 8.97651 33.733 7.93802 33.2271 6.93947C32.7925 5.68817 32.4324 4.41224 32.1487 3.11837C31.9223 2.43936 31.5762 2.06657 31.2034 2C31.0352 2.00595 30.871 2.05268 30.7249 2.13618C30.5787 2.21967 30.4551 2.33743 30.3646 2.4793C29.6989 3.31808 28.9134 5.75453 27.8216 6.60662C26.4726 7.30842 25.0859 7.93514 23.6677 8.48389C23.5142 8.57179 23.382 8.69259 23.2808 8.83761C23.1795 8.98264 23.1116 9.14829 23.0819 9.32267ZM24.826 9.32267C25.4518 9.01645 26.3305 8.6836 27.116 8.31081C27.6221 8.08263 28.1002 7.7967 28.5406 7.45872C29.0034 7.03978 29.3907 6.54438 29.6856 5.99418C30.2048 5.02227 30.6442 3.86395 31.017 3.21157C31.017 3.11837 31.1634 3.06512 31.2167 2.99855C31.2072 3.06924 31.2072 3.14088 31.2167 3.21157C31.4563 3.95715 31.6161 5.2486 31.8824 6.34035C31.9654 6.69051 32.0768 7.03335 32.2152 7.36552C32.512 7.93396 32.9413 8.42259 33.4668 8.79011C34.2256 9.40255 35.1842 9.97505 35.8233 10.4011C35.1576 10.6008 34.199 10.8005 33.3736 11.0934C32.797 11.2798 32.2631 11.5785 31.8025 11.9721C31.095 12.9656 30.5052 14.0379 30.0451 15.1675C29.6673 13.9254 29.1632 12.7253 28.5406 11.586C28.14 11.1378 27.6562 10.7715 27.116 10.5076C26.3571 10.0949 25.4784 9.74872 24.8526 9.44249H24.7461L24.826 9.32267Z" fill="white" fill-opacity="0.8"/>
</g>
<defs>
<filter id="filter0_d_724_1189" x="0" y="0" width="39.7805" height="40" filterUnits="userSpaceOnUse" color-interpolation-filters="sRGB">
<feFlood flood-opacity="0" result="BackgroundImageFix"/>
<feColorMatrix in="SourceAlpha" type="matrix" values="0 0 0 0 0 0 0 0 0 0 0 0 0 0 0 0 0 0 127 0" result="hardAlpha"/>
<feOffset dx="-2" dy="2"/>
<feGaussianBlur stdDeviation="2"/>
<feComposite in2="hardAlpha" operator="out"/>
<feColorMatrix type="matrix" values="0 0 0 0 0 0 0 0 0 0 0 0 0 0 0 0 0 0 0.7 0"/>
<feBlend mode="normal" in2="BackgroundImageFix" result="effect1_dropShadow_724_1189"/>
<feBlend mode="normal" in="SourceGraphic" in2="effect1_dropShadow_724_1189" result="shape"/>
</filter>
</defs>
</svg>
